<svg width="440" height="60" viewBox="0 0 440 60" fill="none" xmlns="http://www.w3.org/2000/svg">
<path d="M0.768 58L10.944 1.264H26.88L36.864 58H24.384L22.656 47.536H14.4L12.768 58H0.768ZM14.592 41.968H22.56L18.624 11.152L14.592 41.968ZM64.0898 58L53.2418 28.528L63.8978 1.264H75.8018L64.1858 28.528L76.1858 58H64.0898ZM41.6258 58V1.264H52.7618V58H41.6258ZM77.7368 58L87.9128 1.264H103.849L113.833 58H101.353L99.6248 47.536H91.3688L89.7368 58H77.7368ZM91.5608 41.968H99.5288L95.5928 11.152L91.5608 41.968ZM132.995 58.672C129.603 58.672 126.691 58.192 124.259 57.232C121.891 56.272 120.067 54.576 118.787 52.144C117.507 49.712 116.867 46.288 116.867 41.872V38.512C118.851 38.512 120.803 38.512 122.723 38.512C124.643 38.512 126.563 38.512 128.483 38.512V42.832C128.483 45.2 128.675 47.024 129.059 48.304C129.443 49.52 129.987 50.384 130.691 50.896C131.395 51.344 132.227 51.568 133.187 51.568C134.659 51.568 135.811 51.056 136.643 50.032C137.539 48.944 137.987 46.864 137.987 43.792C137.987 41.424 137.603 39.664 136.835 38.512C136.131 37.296 134.979 36.336 133.379 35.632C131.779 34.864 129.731 33.936 127.234 32.848C124.995 31.888 123.139 30.736 121.667 29.392C120.195 28.048 119.107 26.352 118.403 24.304C117.699 22.256 117.347 19.76 117.347 16.816C117.347 13.104 117.827 10.096 118.787 7.792C119.811 5.488 121.475 3.824 123.779 2.8C126.147 1.712 129.315 1.168 133.283 1.168C138.403 1.168 142.307 2.288 144.995 4.528C147.747 6.704 149.123 10 149.123 14.416V21.232C147.267 21.232 145.411 21.232 143.555 21.232C141.763 21.232 139.907 21.232 137.987 21.232V17.776C137.987 14.896 137.635 12.88 136.931 11.728C136.291 10.576 135.107 10 133.379 10C131.715 10 130.531 10.512 129.827 11.536C129.123 12.56 128.771 14.224 128.771 16.528C128.771 18.64 129.187 20.304 130.019 21.52C130.915 22.672 132.035 23.568 133.379 24.208C134.723 24.784 136.163 25.36 137.699 25.936C140.515 27.024 142.819 28.144 144.611 29.296C146.403 30.384 147.715 31.92 148.547 33.904C149.379 35.824 149.795 38.608 149.795 42.256C149.795 46.352 149.091 49.616 147.683 52.048C146.339 54.416 144.387 56.112 141.827 57.136C139.331 58.16 136.387 58.672 132.995 58.672ZM156.095 58V1.264H167.231V24.496H176.543V1.264H187.679V58H176.543V32.752H167.231V58H156.095ZM226.718 58.576C224.03 58.576 221.662 58.096 219.614 57.136C217.63 56.112 216.094 54.416 215.006 52.048C213.918 49.616 213.374 46.256 213.374 41.968V38.896C214.142 38.896 214.91 38.896 215.678 38.896C216.51 38.896 217.278 38.896 217.982 38.896V42.256C217.982 45.648 218.334 48.304 219.038 50.224C219.806 52.144 220.862 53.488 222.206 54.256C223.55 55.024 225.086 55.408 226.814 55.408C229.502 55.408 231.71 54.576 233.438 52.912C235.23 51.184 236.126 48.112 236.126 43.696C236.126 40.752 235.678 38.512 234.781 36.976C233.95 35.44 232.67 34.224 230.942 33.328C229.214 32.432 227.102 31.504 224.606 30.544C222.558 29.712 220.702 28.752 219.038 27.664C217.374 26.512 216.062 25.008 215.102 23.152C214.142 21.232 213.662 18.8 213.662 15.856C213.662 12.592 214.11 9.872 215.006 7.696C215.902 5.52 217.342 3.92 219.326 2.896C221.31 1.808 223.902 1.264 227.102 1.264C231.262 1.264 234.494 2.352 236.798 4.528C239.166 6.64 240.35 9.68 240.35 13.648V19.792C239.582 19.792 238.814 19.792 238.046 19.792C237.342 19.792 236.606 19.792 235.838 19.792V14.704C235.838 11.504 235.07 9.072 233.534 7.408C232.062 5.744 229.918 4.912 227.102 4.912C224.03 4.912 221.79 5.808 220.382 7.6C218.974 9.392 218.27 12.08 218.27 15.664C218.27 18.288 218.782 20.368 219.806 21.904C220.83 23.376 222.11 24.528 223.646 25.36C225.246 26.192 226.942 26.96 228.734 27.664C231.614 28.752 233.95 29.904 235.742 31.12C237.534 32.272 238.846 33.776 239.678 35.632C240.51 37.424 240.926 39.952 240.926 43.216C240.926 47.056 240.318 50.096 239.102 52.336C237.886 54.576 236.222 56.176 234.109 57.136C231.998 58.096 229.534 58.576 226.718 58.576ZM255.723 58V4.72H245.931V1.264H270.315V4.72H260.331V58H255.723ZM291.374 59.152C289.454 59.152 287.662 58.992 285.998 58.672C284.334 58.416 282.862 57.84 281.582 56.944C280.302 56.048 279.278 54.768 278.51 53.104C277.806 51.376 277.454 49.136 277.454 46.384V1.264H282.158V47.152C282.158 49.584 282.574 51.472 283.406 52.816C284.302 54.096 285.422 54.96 286.766 55.408C288.174 55.856 289.71 56.08 291.374 56.08C292.974 56.08 294.478 55.856 295.886 55.408C297.294 54.96 298.414 54.096 299.246 52.816C300.142 51.472 300.59 49.584 300.59 47.152V1.264H305.198V46.384C305.198 49.136 304.814 51.376 304.046 53.104C303.342 54.768 302.35 56.048 301.07 56.944C299.854 57.84 298.382 58.416 296.654 58.672C294.99 58.992 293.23 59.152 291.374 59.152ZM317.778 58V1.264H334.002C336.434 1.264 338.514 1.616 340.242 2.32C341.97 3.024 343.314 4.24 344.274 5.96799C345.234 7.696 345.714 10.096 345.714 13.168V45.616C345.714 48.88 345.202 51.44 344.178 53.296C343.154 55.088 341.714 56.336 339.858 57.04C338.066 57.68 335.954 58 333.522 58H317.778ZM322.578 55.216H332.946C335.442 55.216 337.426 54.576 338.898 53.296C340.37 51.952 341.106 49.424 341.106 45.712V13.744C341.106 10.032 340.37 7.536 338.898 6.256C337.426 4.912 335.442 4.24 332.946 4.24H322.578V55.216ZM357.903 58V1.264H362.607V58H357.903ZM388.486 59.152C385.798 59.152 383.43 58.832 381.382 58.192C379.334 57.616 377.702 56.368 376.486 54.448C375.27 52.464 374.662 49.488 374.662 45.52V13.072C374.662 9.424 375.27 6.704 376.486 4.912C377.702 3.12 379.366 1.936 381.478 1.36C383.59 0.783997 385.99 0.495996 388.678 0.495996C391.366 0.495996 393.734 0.815996 395.782 1.456C397.894 2.032 399.526 3.216 400.678 5.008C401.894 6.8 402.502 9.488 402.502 13.072V45.52C402.502 49.552 401.894 52.528 400.678 54.448C399.526 56.368 397.894 57.616 395.782 58.192C393.67 58.832 391.238 59.152 388.486 59.152ZM388.582 56.176C390.438 56.176 392.038 55.952 393.382 55.504C394.79 55.056 395.878 54.16 396.646 52.816C397.478 51.408 397.894 49.328 397.894 46.576V13.168C397.894 10.352 397.478 8.272 396.646 6.928C395.878 5.584 394.79 4.688 393.382 4.24C391.974 3.792 390.374 3.568 388.582 3.568C386.726 3.568 385.094 3.792 383.686 4.24C382.278 4.688 381.19 5.584 380.422 6.928C379.654 8.272 379.27 10.352 379.27 13.168V46.576C379.27 49.328 379.654 51.408 380.422 52.816C381.19 54.16 382.278 55.056 383.686 55.504C385.094 55.952 386.726 56.176 388.582 56.176ZM425.468 58.576C422.78 58.576 420.412 58.096 418.364 57.136C416.38 56.112 414.844 54.416 413.756 52.048C412.668 49.616 412.124 46.256 412.124 41.968V38.896C412.892 38.896 413.66 38.896 414.428 38.896C415.26 38.896 416.028 38.896 416.732 38.896V42.256C416.732 45.648 417.084 48.304 417.788 50.224C418.556 52.144 419.612 53.488 420.956 54.256C422.3 55.024 423.836 55.408 425.564 55.408C428.252 55.408 430.46 54.576 432.188 52.912C433.98 51.184 434.876 48.112 434.876 43.696C434.876 40.752 434.428 38.512 433.531 36.976C432.7 35.44 431.42 34.224 429.692 33.328C427.964 32.432 425.852 31.504 423.356 30.544C421.308 29.712 419.452 28.752 417.788 27.664C416.124 26.512 414.812 25.008 413.852 23.152C412.892 21.232 412.412 18.8 412.412 15.856C412.412 12.592 412.86 9.872 413.756 7.696C414.652 5.52 416.092 3.92 418.076 2.896C420.06 1.808 422.652 1.264 425.852 1.264C430.012 1.264 433.244 2.352 435.548 4.528C437.916 6.64 439.1 9.68 439.1 13.648V19.792C438.332 19.792 437.564 19.792 436.796 19.792C436.092 19.792 435.356 19.792 434.588 19.792V14.704C434.588 11.504 433.82 9.072 432.284 7.408C430.812 5.744 428.668 4.912 425.852 4.912C422.78 4.912 420.54 5.808 419.132 7.6C417.724 9.392 417.02 12.08 417.02 15.664C417.02 18.288 417.532 20.368 418.556 21.904C419.58 23.376 420.86 24.528 422.396 25.36C423.996 26.192 425.692 26.96 427.484 27.664C430.364 28.752 432.7 29.904 434.492 31.12C436.284 32.272 437.596 33.776 438.428 35.632C439.26 37.424 439.676 39.952 439.676 43.216C439.676 47.056 439.068 50.096 437.852 52.336C436.636 54.576 434.972 56.176 432.859 57.136C430.748 58.096 428.284 58.576 425.468 58.576Z" fill="white"/>
</svg>
