<svg width="657" height="630" viewBox="0 0 657 630" fill="none" xmlns="http://www.w3.org/2000/svg">
<path d="M104.532 1C-103.952 219.945 23.2071 589.622 300.987 626.738C268.144 465.898 241.404 392.371 173.263 311.965C181.854 183.137 160.184 118.419 104.532 1Z" fill="url(#paint0_linear_0_1)"/>
<path d="M104.532 1C-103.952 219.945 23.2071 589.622 300.987 626.738C268.144 465.898 241.404 392.371 173.263 311.965C181.854 183.137 160.184 118.419 104.532 1Z" stroke="black"/>
<path d="M364.75 195.829H290.292C244.808 123.702 208.709 81.746 103 1C156.266 117.771 182.497 174.179 171.731 311.965C240.462 393.831 273.371 488.711 299.456 626.738C310.911 629.276 336.548 629.475 356.158 626.738C383.651 483.313 417.442 386.083 483.883 311.965C475.864 180.598 498.904 112.732 552.614 1C479.874 54.3083 422.589 103.794 364.75 195.829Z" fill="url(#paint1_linear_0_1)"/>
<path d="M364.75 195.829H290.292C244.808 123.702 208.709 81.746 103 1C156.266 117.771 182.497 174.179 171.731 311.965C240.462 393.831 273.371 488.711 299.456 626.738C310.911 629.276 336.548 629.475 356.158 626.738C383.651 483.313 417.442 386.083 483.883 311.965C475.864 180.598 498.904 112.732 552.614 1C479.874 54.3083 422.589 103.794 364.75 195.829Z" stroke="black"/>
<path d="M552.455 1C760.939 219.945 633.78 589.622 356 626.737C388.843 465.898 415.583 392.371 483.725 311.965C475.133 183.136 496.803 118.419 552.455 1Z" fill="url(#paint2_linear_0_1)"/>
<path d="M552.455 1C760.939 219.945 633.78 589.622 356 626.737C388.843 465.898 415.583 392.371 483.725 311.965C475.133 183.136 496.803 118.419 552.455 1Z" stroke="black"/>
<path d="M467.441 417.126C462.859 420.299 451.503 453.047 446.249 479.319C444.969 489.476 448.54 494.55 458.85 494.55C469.16 494.55 525.937 474.881 543.045 459.011C569.965 436.799 575.06 377.126 548.773 349.221C546.482 345.413 541.462 345.257 535.599 347.317C522.106 352.431 514.977 356.989 502.952 367.625C533.881 410.78 493.318 436.188 467.441 417.126Z" fill="black"/>
<path d="M467.441 417.126C462.859 420.299 451.503 453.047 446.249 479.319C444.969 489.476 448.54 494.55 458.85 494.55C469.16 494.55 525.937 474.881 543.045 459.011C569.965 436.799 575.06 377.126 548.773 349.221C546.482 345.413 541.462 345.257 535.599 347.317C522.106 352.431 514.977 356.989 502.952 367.625C533.881 410.78 493.318 436.188 467.441 417.126Z" stroke="black"/>
<path d="M189.626 417.126C194.208 420.299 205.564 453.047 210.818 479.319C212.098 489.476 208.527 494.55 198.217 494.55C187.907 494.55 131.13 474.881 114.022 459.011C87.1021 436.799 82.0064 377.126 108.294 349.221C110.585 345.413 115.604 345.257 121.468 347.317C134.96 352.431 142.09 356.989 154.115 367.625C123.186 410.78 163.748 436.188 189.626 417.126Z" fill="black"/>
<path d="M189.626 417.126C194.208 420.299 205.564 453.047 210.818 479.319C212.098 489.476 208.527 494.55 198.217 494.55C187.907 494.55 131.13 474.881 114.022 459.011C87.1021 436.799 82.0064 377.126 108.294 349.221C110.585 345.413 115.604 345.257 121.468 347.317C134.96 352.431 142.09 356.989 154.115 367.625C123.186 410.78 163.748 436.188 189.626 417.126Z" stroke="black"/>
<defs>
<linearGradient id="paint0_linear_0_1" x1="150.994" y1="1" x2="150.994" y2="626.738" gradientUnits="userSpaceOnUse">
<stop stop-color="#6014F9"/>
<stop offset="0.46" stop-color="#AE6BD5"/>
<stop offset="0.82" stop-color="#FBFAF9"/>
</linearGradient>
<linearGradient id="paint1_linear_0_1" x1="327.807" y1="1" x2="327.807" y2="628.717" gradientUnits="userSpaceOnUse">
<stop stop-color="#6014F9"/>
<stop offset="0.46" stop-color="#AE6BD5"/>
<stop offset="0.82" stop-color="#FBFAF9"/>
</linearGradient>
<linearGradient id="paint2_linear_0_1" x1="505.994" y1="1" x2="505.994" y2="626.737" gradientUnits="userSpaceOnUse">
<stop stop-color="#6014F9"/>
<stop offset="0.46" stop-color="#AE6BD5"/>
<stop offset="0.82" stop-color="#FBFAF9"/>
</linearGradient>
</defs>
</svg>
