<svg width="744" height="72" viewBox="0 0 744 72" fill="none" xmlns="http://www.w3.org/2000/svg">
<path d="M0.536 70L18.584 1.84H37.016L55.064 70H39.608L27.8 21.328L15.992 70H0.536ZM13.88 57.136L17.528 43.888H38.072L41.72 57.136H13.88ZM75.2825 52.72V29.008L92.5625 1.84H110.899L75.2825 52.72ZM60.7865 70V1.84H76.2425V70H60.7865ZM94.4825 70L78.9305 39.28L89.2985 29.68L111.091 70H94.4825ZM115.661 70L133.709 1.84H152.141L170.189 70H154.733L142.925 21.328L131.117 70H115.661ZM129.005 57.136L132.653 43.888H153.197L156.845 57.136H129.005ZM200.872 71.536C195.624 71.536 191.176 70.544 187.528 68.56C183.88 66.576 181.064 63.728 179.08 60.016C177.16 56.304 176.008 51.792 175.624 46.48L191.08 45.808C191.464 48.56 192.104 50.864 193 52.72C193.96 54.512 195.144 55.856 196.552 56.752C198.024 57.648 199.752 58.096 201.736 58.096C203.4 58.096 204.84 57.872 206.056 57.424C207.272 56.912 208.2 56.176 208.84 55.216C209.48 54.192 209.8 52.976 209.8 51.568C209.8 49.968 209.416 48.56 208.648 47.344C207.88 46.128 206.536 45.008 204.616 43.984C202.76 42.96 200.2 42.064 196.936 41.296C192.456 40.208 188.712 38.864 185.704 37.264C182.76 35.664 180.552 33.616 179.08 31.12C177.608 28.56 176.872 25.328 176.872 21.424C176.872 17.072 177.768 13.328 179.56 10.192C181.416 6.992 184.104 4.56 187.624 2.89599C191.208 1.168 195.528 0.303999 200.584 0.303999C205.512 0.303999 209.704 1.2 213.16 2.992C216.68 4.72 219.4 7.312 221.32 10.768C223.304 14.224 224.456 18.48 224.776 23.536L209.128 24.208C208.808 21.968 208.264 20.08 207.496 18.544C206.728 16.944 205.704 15.76 204.424 14.992C203.144 14.16 201.608 13.744 199.816 13.744C197.576 13.744 195.784 14.352 194.44 15.568C193.096 16.784 192.424 18.448 192.424 20.56C192.424 22.032 192.808 23.312 193.576 24.4C194.344 25.488 195.656 26.448 197.512 27.28C199.432 28.112 202.056 28.944 205.384 29.776C210.44 30.928 214.408 32.496 217.288 34.48C220.232 36.464 222.312 38.8 223.528 41.488C224.744 44.176 225.352 47.28 225.352 50.8C225.352 55.088 224.392 58.768 222.472 61.84C220.552 64.912 217.768 67.312 214.12 69.04C210.472 70.704 206.056 71.536 200.872 71.536ZM233.474 70V1.84H248.93V33.904L243.554 28.816H272.546L267.17 33.904V1.84H282.626V70H267.17V37.552L272.546 42.64H243.554L248.93 37.552V70H233.474ZM374.039 71.536C369.111 71.536 364.791 70.544 361.079 68.56C357.431 66.576 354.519 63.824 352.343 60.304C350.167 56.72 348.887 52.56 348.503 47.824L358.871 47.152C359.319 50.416 360.215 53.168 361.559 55.408C362.903 57.648 364.663 59.344 366.839 60.496C369.015 61.584 371.543 62.128 374.423 62.128C377.239 62.128 379.607 61.776 381.527 61.072C383.447 60.304 384.919 59.216 385.943 57.808C386.967 56.4 387.479 54.704 387.479 52.72C387.479 50.672 386.999 48.88 386.039 47.344C385.079 45.808 383.351 44.4 380.855 43.12C378.359 41.84 374.711 40.528 369.911 39.184C365.239 37.904 361.431 36.464 358.487 34.864C355.543 33.264 353.399 31.28 352.055 28.912C350.711 26.544 350.039 23.6 350.039 20.08C350.039 16.176 350.935 12.752 352.727 9.808C354.583 6.8 357.207 4.464 360.599 2.8C364.055 1.136 368.183 0.303999 372.983 0.303999C377.719 0.303999 381.751 1.232 385.079 3.088C388.471 4.944 391.127 7.536 393.047 10.864C395.031 14.128 396.247 17.968 396.695 22.384L386.327 22.96C386.007 20.336 385.271 18.032 384.119 16.048C383.031 14.064 381.527 12.528 379.607 11.44C377.687 10.288 375.383 9.712 372.695 9.712C368.919 9.712 365.911 10.64 363.671 12.496C361.495 14.288 360.407 16.656 360.407 19.6C360.407 21.584 360.855 23.216 361.751 24.496C362.647 25.776 364.215 26.928 366.455 27.952C368.695 28.976 371.831 30.032 375.863 31.12C381.303 32.592 385.623 34.288 388.823 36.208C392.023 38.128 394.327 40.432 395.735 43.12C397.143 45.808 397.847 49.008 397.847 52.72C397.847 56.432 396.855 59.728 394.871 62.608C392.887 65.424 390.103 67.632 386.519 69.232C382.999 70.768 378.839 71.536 374.039 71.536ZM425.746 70V11.344H405.778V1.84H455.698V11.344H435.73V70H425.746ZM488.3 71.536C481.004 71.536 475.308 69.296 471.212 64.816C467.116 60.336 465.068 54.16 465.068 46.288V1.84H475.148V46.672C475.148 51.664 476.268 55.504 478.508 58.192C480.748 60.816 484.012 62.128 488.3 62.128C492.588 62.128 495.852 60.816 498.092 58.192C500.332 55.504 501.452 51.664 501.452 46.672V1.84H511.532V46.288C511.532 54.16 509.484 60.336 505.388 64.816C501.292 69.296 495.596 71.536 488.3 71.536ZM525.031 70V1.84H541.639C547.655 1.84 552.871 3.184 557.287 5.872C561.767 8.496 565.191 12.368 567.559 17.488C569.991 22.544 571.207 28.72 571.207 36.016C571.207 43.312 569.991 49.488 567.559 54.544C565.191 59.6 561.767 63.44 557.287 66.064C552.871 68.688 547.655 70 541.639 70H525.031ZM535.111 60.496H541.351C547.559 60.496 552.327 58.48 555.655 54.448C559.047 50.352 560.743 44.208 560.743 36.016C560.743 27.824 559.047 21.68 555.655 17.584C552.327 13.424 547.559 11.344 541.351 11.344H535.111V60.496ZM582.113 70V60.496H598.433V11.344H582.113V1.84H624.737V11.344H608.417V60.496H624.737V70H582.113ZM660.988 71.536C655.548 71.536 650.94 70.16 647.164 67.408C643.452 64.656 640.604 60.624 638.62 55.312C636.636 50 635.644 43.568 635.644 36.016C635.644 28.336 636.636 21.84 638.62 16.528C640.604 11.216 643.452 7.184 647.164 4.432C650.94 1.68 655.548 0.303999 660.988 0.303999C666.428 0.303999 671.036 1.68 674.812 4.432C678.588 7.184 681.436 11.216 683.356 16.528C685.34 21.84 686.332 28.336 686.332 36.016C686.332 43.568 685.34 50 683.356 55.312C681.436 60.624 678.588 64.656 674.812 67.408C671.036 70.16 666.428 71.536 660.988 71.536ZM660.988 62.128C664.188 62.128 666.876 61.168 669.052 59.248C671.292 57.328 672.988 54.416 674.14 50.512C675.292 46.608 675.868 41.776 675.868 36.016C675.868 30.256 675.292 25.424 674.14 21.52C672.988 17.552 671.292 14.608 669.052 12.688C666.876 10.704 664.188 9.712 660.988 9.712C657.788 9.712 655.068 10.704 652.828 12.688C650.652 14.608 648.988 17.552 647.836 21.52C646.684 25.424 646.108 30.256 646.108 36.016C646.108 41.776 646.684 46.608 647.836 50.512C648.988 54.416 650.652 57.328 652.828 59.248C655.068 61.168 657.788 62.128 660.988 62.128ZM719.414 71.536C714.486 71.536 710.166 70.544 706.454 68.56C702.806 66.576 699.894 63.824 697.718 60.304C695.542 56.72 694.262 52.56 693.878 47.824L704.246 47.152C704.694 50.416 705.59 53.168 706.934 55.408C708.278 57.648 710.038 59.344 712.214 60.496C714.39 61.584 716.918 62.128 719.798 62.128C722.614 62.128 724.982 61.776 726.902 61.072C728.822 60.304 730.294 59.216 731.318 57.808C732.342 56.4 732.854 54.704 732.854 52.72C732.854 50.672 732.374 48.88 731.414 47.344C730.454 45.808 728.726 44.4 726.23 43.12C723.734 41.84 720.086 40.528 715.286 39.184C710.614 37.904 706.806 36.464 703.862 34.864C700.918 33.264 698.774 31.28 697.43 28.912C696.086 26.544 695.414 23.6 695.414 20.08C695.414 16.176 696.31 12.752 698.102 9.808C699.958 6.8 702.582 4.464 705.974 2.8C709.43 1.136 713.558 0.303999 718.358 0.303999C723.094 0.303999 727.126 1.232 730.454 3.088C733.846 4.944 736.502 7.536 738.422 10.864C740.406 14.128 741.622 17.968 742.07 22.384L731.702 22.96C731.382 20.336 730.646 18.032 729.494 16.048C728.406 14.064 726.902 12.528 724.982 11.44C723.062 10.288 720.758 9.712 718.07 9.712C714.294 9.712 711.286 10.64 709.046 12.496C706.87 14.288 705.782 16.656 705.782 19.6C705.782 21.584 706.23 23.216 707.126 24.496C708.022 25.776 709.59 26.928 711.83 27.952C714.07 28.976 717.206 30.032 721.238 31.12C726.678 32.592 730.998 34.288 734.198 36.208C737.398 38.128 739.702 40.432 741.11 43.12C742.518 45.808 743.222 49.008 743.222 52.72C743.222 56.432 742.23 59.728 740.246 62.608C738.262 65.424 735.478 67.632 731.894 69.232C728.374 70.768 724.214 71.536 719.414 71.536Z" fill="white"/>
</svg>
