<?xml version="1.0" standalone="yes"?>
<svg width="326" height="84">
<path style="fill:#000000; stroke:none;" d="M0 0L0 84L326 84L326 0L0 0z"/>
<path style="fill:#131314; stroke:none;" d="M1 22L1 59L146 59L146 22L1 22M152 23L152 59L321 59L321 49C312.153 54.2441 299.922 61.1239 297 45C300.789 46.1455 301.198 49.0501 304.299 50.973C307.818 53.1558 317.515 51.0246 313.953 45.429C310.546 40.0773 298.192 42.9946 297.948 33.9969C297.559 19.7048 315.511 27.0732 319 35L314 35C312.743 30.858 303.257 26.7602 302.466 33.2091C301.912 37.7256 317.279 43.3446 321 45L321 23L152 23z"/>
<path style="fill:#6f6f70; stroke:none;" d="M13 25L13 26L21 26L13 25z"/>
<path style="fill:#707070; stroke:none;" d="M34 25L34 26L39 26L34 25z"/>
<path style="fill:#6f6f70; stroke:none;" d="M52 25L52 26L59 27L52 25M71 25L71 26L78 26L71 25z"/>
<path style="fill:#a1a1a1; stroke:none;" d="M97 25L97 26L106 26L97 25z"/>
<path style="fill:#6f6f70; stroke:none;" d="M118 25L118 26L124 26L118 25M138 25L138 26L143 26L138 25z"/>
<path style="fill:#606061; stroke:none;" d="M160 25L160 26L165 26L160 25z"/>
<path style="fill:#5c5c5d; stroke:none;" d="M278 25L278 26L283 26L278 25z"/>
<path style="fill:#5d5d5e; stroke:none;" d="M305 25L305 26L311 26L305 25z"/>
<path style="fill:#e3e3e3; stroke:none;" d="M13 26L3 56L9 56C10.5105 47.69 15.735 48 23 48L25 56L31 56L21 26L13 26z"/>
<path style="fill:#535354; stroke:none;" d="M33 26L33 56L34 56L33 26z"/>
<path style="fill:#e3e3e3; stroke:none;" d="M34 26L34 56L39 56L43 43L44 43C47.7583 49.7507 50.6787 55.9009 59 56L49.4468 38L58 26C48.9297 26.2943 45.553 33.9884 39 39L39 26L34 26z"/>
<path style="fill:#767677; stroke:none;" d="M39 26L41 39L39 26z"/>
<path style="fill:#8e8e8f; stroke:none;" d="M51 26L52 27L51 26z"/>
<path style="fill:#e3e3e3; stroke:none;" d="M70 26L60 56L66 56L68 48C75.5254 48 80.0181 47.7847 82 56L88 56C86.6685 45.3155 82.0733 26.0427 70 26M96 46L90 46C91.1665 56.4454 110.319 61.4246 113.566 49.9568C117.12 37.4031 101.426 42.0853 98.037 34.8194C95.3039 28.9597 105.797 30.8021 108 35L113 35C112.226 24.768 93.8453 21.3367 91.3225 32.0046C88.3696 44.492 106.031 39.2245 107.369 47.1698C108.657 54.8251 97.8161 49.7677 96 46z"/>
<path style="fill:#7c7c7c; stroke:none;" d="M108 26L109 27L108 26z"/>
<path style="fill:#303031; stroke:none;" d="M117 26L117 56L118 56L117 26z"/>
<path style="fill:#cecece; stroke:none;" d="M118 26L118 56L119 56L118 26z"/>
<path style="fill:#e3e3e3; stroke:none;" d="M119 26L119 56L123 56C123 43.3225 125.645 42 138 42L138 56L143 56L143 26L138 26L138 39C126.383 39 123 38.2675 123 26L119 26z"/>
<path style="fill:#99999a; stroke:none;" d="M123 26L123 38L124 38L123 26z"/>
<path style="fill:#5c5c5d; stroke:none;" d="M137 26L137 38L138 38L137 26z"/>
<path style="fill:#646464; stroke:none;" d="M143 26L143 56L144 56L143 26z"/>
<path style="fill:#9c9c9d; stroke:none;" d="M158.667 26.3333L159.333 26.6667L158.667 26.3333z"/>
<path style="fill:#e5e5e5; stroke:none;" d="M157 46L153 46C154.475 55.2819 170.313 61.406 173.566 49.956C176.921 38.1443 162.783 42.0895 158.752 35.6065C155.706 30.7103 163.637 28.696 166.871 30.7276C169.195 32.1875 170.37 34.0805 173 35C172.291 25.6271 156.804 21.7352 154.323 32.0185C151.504 43.6972 167.399 39.104 169.539 47.0617C171.608 54.7608 159.105 51.9039 157 46z"/>
<path style="fill:#6a6a6b; stroke:none;" d="M167.667 26.3333L168.333 26.6667L167.667 26.3333z"/>
<path style="fill:#b7b7b7; stroke:none;" d="M176 29L177 29C182.281 24.9988 192.557 27 199 27C195.086 24.7449 177.056 24.0712 176 29z"/>
<path style="fill:#4f4f51; stroke:none;" d="M202 26L202 48L203 48L202 26z"/>
<path style="fill:#b9b9ba; stroke:none;" d="M203 26L203 27L206 27L203 26z"/>
<path style="fill:#747475; stroke:none;" d="M206 26L206 47L207 47L206 26z"/>
<path style="fill:#323233; stroke:none;" d="M221 26L221 48L222 48L221 26z"/>
<path style="fill:#afafb0; stroke:none;" d="M222 26L222 27L225 27L225 48L226 48L226 26L222 26z"/>
<path style="fill:#cbcbcb; stroke:none;" d="M231 26L231 55L232 55L232 27L243 27L231 26z"/>
<path style="fill:#6f6f70; stroke:none;" d="M243.667 26.3333L244.333 26.6667L243.667 26.3333z"/>
<path style="fill:#5e5e5f; stroke:none;" d="M258 26L258 55L259 55L258 26z"/>
<path style="fill:#e5e5e5; stroke:none;" d="M259 26L259 55L262 55L262 26L259 26z"/>
<path style="fill:#7d7d7d; stroke:none;" d="M262 26C262 32.8915 265.185 50.9899 259 55L259 56L263 56L262 26z"/>
<path style="fill:#9a9a9b; stroke:none;" d="M275.667 26.3333L276.333 26.6667L275.667 26.3333z"/>
<path style="fill:#e7e7e7; stroke:none;" d="M277 26.5725C261.438 31.0193 266.827 60.3795 284 55.1921C300.677 50.1544 295.057 21.413 277 26.5725z"/>
<path style="fill:#e5e5e5; stroke:none;" d="M298 46C298.717 55.499 314.465 59.7274 318.253 49.956C322.576 38.8043 305.833 41.4647 302.921 34.9066C300.62 29.7238 308.828 28.7918 311.791 30.7269C314.144 32.2639 315.28 34.0902 318 35C317.012 26.2064 302.307 21.2847 298.607 31.044C294.251 42.5365 310.952 39.6089 314.079 46.2099C316.4 51.1112 308.177 53.1247 305.054 51.2438C302.335 49.6065 301.041 47.0715 298 46z"/>
<path style="fill:#474747; stroke:none;" d="M312.667 26.3333L313.333 26.6667L312.667 26.3333z"/>
<path style="fill:#b1b1b1; stroke:none;" d="M12.3333 27.6667L12.6667 28.3333L12.3333 27.6667z"/>
<path style="fill:#878787; stroke:none;" d="M50 27L51 28L50 27z"/>
<path style="fill:#919191; stroke:none;" d="M57 27L58 28L57 27z"/>
<path style="fill:#e3e3e3; stroke:none;" d="M177 27L177 29L186 29L186 55L189 55C189 44.2932 184.785 29.0502 199 29L199 27L177 27z"/>
<path style="fill:#e6e6e6; stroke:none;" d="M203 27C203 33.6493 201.066 43.9546 204.179 49.9846C207.813 57.0249 219.688 58.2749 223.821 50.892C227.154 44.9391 225 33.6767 225 27L223 27C223 33.0673 224.474 41.4346 221.543 46.9568C217.861 53.8956 209.584 53.3306 206.742 45.9961C204.637 40.5621 206 32.7598 206 27L203 27z"/>
<path style="fill:#cbcbcb; stroke:none;" d="M222 27L222 46L223 46L222 27z"/>
<path style="fill:#e7e7e7; stroke:none;" d="M232 27L232 55C237.433 55 244.055 55.9656 248.812 52.7716C255.901 48.0113 256.086 33.5526 248.942 28.7423C244.435 25.707 237.175 27 232 27z"/>
<path style="fill:#848484; stroke:none;" d="M287 27L288 28L287 27z"/>
<path style="fill:#8e8e8e; stroke:none;" d="M314 27L315 28L314 27z"/>
<path style="fill:#aaaaab; stroke:none;" d="M21.3333 28.6667L21.6667 29.3333L21.3333 28.6667z"/>
<path style="fill:#797979; stroke:none;" d="M49 28L50 29L49 28z"/>
<path style="fill:#adadad; stroke:none;" d="M69.3333 28.6667L69.6667 29.3333L69.3333 28.6667z"/>
<path style="fill:#6a6a6a; stroke:none;" d="M155 28L156 29L155 28z"/>
<path style="fill:#6e6e6e; stroke:none;" d="M171 28L172 29L171 28z"/>
<path style="fill:#858586; stroke:none;" d="M272 28L273 29L272 28z"/>
<path style="fill:#3f3f40; stroke:none;" d="M160 29L160 30L166 30L160 29z"/>
<path style="fill:#7e7e7f; stroke:none;" d="M176 29L176 30L186 30L176 29M190 29L190 30L199 30L190 29M235 29L235 30L242 30L235 29z"/>
<path style="fill:#8e8e8e; stroke:none;" d="M271 29L272 30L271 29z"/>
<path style="fill:#7a7a7a; stroke:none;" d="M277.667 29.3333L278.333 29.6667L277.667 29.3333z"/>
<path style="fill:#464646; stroke:none;" d="M279 29L279 30L283 30L279 29z"/>
<path style="fill:#404041; stroke:none;" d="M305 29L305 30L311 30L305 29z"/>
<path style="fill:#515151; stroke:none;" d="M185 30L185 55L186 55L185 30z"/>
<path style="fill:#848485; stroke:none;" d="M189 30C189 36.3663 191.795 51.2431 186 55L186 56L190 56L189 30z"/>
<path style="fill:#adadad; stroke:none;" d="M234 30L234 52L235 52L234 30z"/>
<path style="fill:#131314; stroke:none;" d="M235 30L235 52C244.431 51.974 258.617 40.6942 246.772 31.7423C243.565 29.3191 238.773 30.0004 235 30z"/>
<path style="fill:#757575; stroke:none;" d="M270 30L271 31L270 30z"/>
<path style="fill:#131314; stroke:none;" d="M276.059 31.0278C266.692 36.153 272.902 57.31 284.945 50.821C295.486 45.1413 288.077 24.4516 276.059 31.0278z"/>
<path style="fill:#888888; stroke:none;" d="M285 30L286 31L285 30z"/>
<path style="fill:#747475; stroke:none;" d="M303 30L304 31L303 30z"/>
<path style="fill:#8b8b8b; stroke:none;" d="M312 30L313 31L312 30z"/>
<path style="fill:#848484; stroke:none;" d="M97 31L98 32L97 31z"/>
<path style="fill:#797979; stroke:none;" d="M106 31L107 32L106 31z"/>
<path style="fill:#818182; stroke:none;" d="M153 31L153 36L154 36L153 31z"/>
<path style="fill:#a2a2a2; stroke:none;" d="M173 31L173 35L174 35L173 31z"/>
<path style="fill:#717172; stroke:none;" d="M286 31L287 32L286 31z"/>
<path style="fill:#8c8c8c; stroke:none;" d="M313 31L314 32L313 31z"/>
<path style="fill:#9b9b9b; stroke:none;" d="M16.6667 32.3333L17.3333 32.6667L16.6667 32.3333z"/>
<path style="fill:#7b7b7b; stroke:none;" d="M73 32L73 34L75 32L73 32z"/>
<path style="fill:#909090; stroke:none;" d="M80.3333 32.6667L80.6667 33.3333L80.3333 32.6667z"/>
<path style="fill:#616161; stroke:none;" d="M90 32L90 36L91 36L90 32z"/>
<path style="fill:#727273; stroke:none;" d="M113 32L113 35L114 35L113 32z"/>
<path style="fill:#424242; stroke:none;" d="M157 32L157 36L158 36L157 32z"/>
<path style="fill:#6b6b6c; stroke:none;" d="M287 32L288 33L287 32z"/>
<path style="fill:#39393a; stroke:none;" d="M297 32L297 36L298 36L297 32z"/>
<path style="fill:#888888; stroke:none;" d="M301 32L301 35L302 35L301 32z"/>
<path style="fill:#131314; stroke:none;" d="M16 33L13 44L20 44L18 33L16 33z"/>
<path style="fill:#9b9b9b; stroke:none;" d="M23.3333 33.6667L23.6667 34.3333L23.3333 33.6667z"/>
<path style="fill:#818182; stroke:none;" d="M67.3333 33.6667L67.6667 34.3333L67.3333 33.6667z"/>
<path style="fill:#121213; stroke:none;" d="M74 33L71 44L78 44L74 33z"/>
<path style="fill:#6d6d6d; stroke:none;" d="M96.3333 33.6667L96.6667 34.3333L96.3333 33.6667z"/>
<path style="fill:#a7a7a8; stroke:none;" d="M268.333 33.6667L268.667 34.3333L268.333 33.6667z"/>
<path style="fill:#6d6d6e; stroke:none;" d="M314.333 33.6667L314.667 34.3333L314.333 33.6667z"/>
<path style="fill:#4d4d4d; stroke:none;" d="M318.333 33.6667L318.667 34.3333L318.333 33.6667z"/>
<path style="fill:#707071; stroke:none;" d="M75.3333 34.6667L75.6667 35.3333L75.3333 34.6667z"/>
<path style="fill:#a0a0a0; stroke:none;" d="M253.333 34.6667L253.667 35.3333L253.333 34.6667z"/>
<path style="fill:#a4a4a4; stroke:none;" d="M9.33333 35.6667L9.66667 36.3333L9.33333 35.6667z"/>
<path style="fill:#747475; stroke:none;" d="M50 35L51 36L50 35z"/>
<path style="fill:#a9a9aa; stroke:none;" d="M81.3333 35.6667L81.6667 36.3333L81.3333 35.6667z"/>
<path style="fill:#5f5f60; stroke:none;" d="M289.333 35.6667L289.667 36.3333L289.333 35.6667z"/>
<path style="fill:#afafb0; stroke:none;" d="M24.3333 36.6667L24.6667 37.3333L24.3333 36.6667z"/>
<path style="fill:#898989; stroke:none;" d="M42 36L43 37L42 36z"/>
<path style="fill:#767677; stroke:none;" d="M49 36L50 37L49 36z"/>
<path style="fill:#9d9d9d; stroke:none;" d="M66.3333 36.6667L66.6667 37.3333L66.3333 36.6667z"/>
<path style="fill:#464647; stroke:none;" d="M72.3333 36.6667L72.6667 37.3333L72.3333 36.6667z"/>
<path style="fill:#838384; stroke:none;" d="M158 36L159 37L158 36z"/>
<path style="fill:#989899; stroke:none;" d="M267 36L267 44L268 44L267 36z"/>
<path style="fill:#3e3e3f; stroke:none;" d="M271 36L271 45L272 45L271 36z"/>
<path style="fill:#7a7a7b; stroke:none;" d="M41 37L42 38L41 37z"/>
<path style="fill:#8f8f90; stroke:none;" d="M48 37L49 38L48 37z"/>
<path style="fill:#6e6e70; stroke:none;" d="M76.3333 37.6667L76.6667 38.3333L76.3333 37.6667z"/>
<path style="fill:#7b7b7b; stroke:none;" d="M250 37L250 44L251 44L250 37z"/>
<path style="fill:#626261; stroke:none;" d="M254 37L254 43L255 43L254 37z"/>
<path style="fill:#a4a4a4; stroke:none;" d="M290 37L290 42L291 42L290 37z"/>
<path style="fill:#a5a5a5; stroke:none;" d="M8.33333 38.6667L8.66667 39.3333L8.33333 38.6667z"/>
<path style="fill:#474748; stroke:none;" d="M14.3333 38.6667L14.6667 39.3333L14.3333 38.6667z"/>
<path style="fill:#767676; stroke:none;" d="M103.667 38.3333L104.333 38.6667L103.667 38.3333z"/>
<path style="fill:#c0c0c1; stroke:none;" d="M124 38L124 39L138 39L124 38z"/>
<path style="fill:#6e6e6e; stroke:none;" d="M162.667 38.3333L163.333 38.6667L162.667 38.3333z"/>
<path style="fill:#373738; stroke:none;" d="M294 38L294 44L295 44L294 38z"/>
<path style="fill:#858586; stroke:none;" d="M306.667 38.3333L307.333 38.6667L306.667 38.3333z"/>
<path style="fill:#aeaeae; stroke:none;" d="M65.3333 39.6667L65.6667 40.3333L65.3333 39.6667z"/>
<path style="fill:#4a4a4a; stroke:none;" d="M71.3333 39.6667L71.6667 40.3333L71.3333 39.6667z"/>
<path style="fill:#777777; stroke:none;" d="M166.667 39.3333L167.333 39.6667L166.667 39.3333z"/>
<path style="fill:#79797a; stroke:none;" d="M300 39L301 40L300 39z"/>
<path style="fill:#575758; stroke:none;" d="M311.667 39.3333L312.333 39.6667L311.667 39.3333z"/>
<path style="fill:#a8a8a8; stroke:none;" d="M95.6667 41.3333L96.3333 41.6667L95.6667 41.3333z"/>
<path style="fill:#909090; stroke:none;" d="M159.667 41.3333L160.333 41.6667L159.667 41.3333z"/>
<path style="fill:#a9a9a9; stroke:none;" d="M304.667 41.3333L305.333 41.6667L304.667 41.3333z"/>
<path style="fill:#464647; stroke:none;" d="M20.3333 42.6667L20.6667 43.3333L20.3333 42.6667z"/>
<path style="fill:#adadad; stroke:none;" d="M64.3333 42.6667L64.6667 43.3333L64.3333 42.6667z"/>
<path style="fill:#545454; stroke:none;" d="M70.3333 42.6667L70.6667 43.3333L70.3333 42.6667z"/>
<path style="fill:#898988; stroke:none;" d="M98.6667 42.3333L99.3333 42.6667L98.6667 42.3333z"/>
<path style="fill:#c6c6c6; stroke:none;" d="M124 42L124 43L138 43L124 42z"/>
<path style="fill:#5b5b5c; stroke:none;" d="M162 42L162 43L165 43L162 42z"/>
<path style="fill:#717172; stroke:none;" d="M307.667 42.3333L308.333 42.6667L307.667 42.3333z"/>
<path style="fill:#868688; stroke:none;" d="M102.667 43.3333L103.333 43.6667L102.667 43.3333z"/>
<path style="fill:#99999a; stroke:none;" d="M123 43L123 56L124 56L123 43z"/>
<path style="fill:#5c5c5d; stroke:none;" d="M137 43L137 56L138 56L137 43z"/>
<path style="fill:#aaaaaa; stroke:none;" d="M13 44L13 45L21 45L13 44z"/>
<path style="fill:#9f9fa0; stroke:none;" d="M27.3333 44.6667L27.6667 45.3333L27.3333 44.6667z"/>
<path style="fill:#6d6d6e; stroke:none;" d="M51 44L52 45L51 44z"/>
<path style="fill:#aaaaaa; stroke:none;" d="M70 44L70 45L78 45L70 44z"/>
<path style="fill:#7f7f80; stroke:none;" d="M45 45L46 46L45 45z"/>
<path style="fill:#525252; stroke:none;" d="M114 45L114 50L115 50L114 45z"/>
<path style="fill:#434344; stroke:none;" d="M153 45L153 46L157 46L153 45z"/>
<path style="fill:#9e9e9e; stroke:none;" d="M174 45L174 50L175 50L174 45z"/>
<path style="fill:#8c8c8d; stroke:none;" d="M249.333 45.6667L249.667 46.3333L249.333 45.6667z"/>
<path style="fill:#454546; stroke:none;" d="M297 45L297 46L301 46L297 45z"/>
<path style="fill:#424243; stroke:none;" d="M319 45L319 49L320 49L319 45z"/>
<path style="fill:#969696; stroke:none;" d="M5.33333 46.6667L5.66667 47.3333L5.33333 46.6667z"/>
<path style="fill:#a4a4a4; stroke:none;" d="M85.3333 46.6667L85.6667 47.3333L85.3333 46.6667z"/>
<path style="fill:#707070; stroke:none;" d="M108 46L108 49L109 49L108 46z"/>
<path style="fill:#464647; stroke:none;" d="M253.333 46.6667L253.667 47.3333L253.333 46.6667z"/>
<path style="fill:#999999; stroke:none;" d="M297 46L297 49L298 49L297 46z"/>
<path style="fill:#4d4d4e; stroke:none;" d="M301 46L301 49L302 49L301 46z"/>
<path style="fill:#9c9c9d; stroke:none;" d="M315 46L315 49L316 49L315 46z"/>
<path style="fill:#a0a0a0; stroke:none;" d="M28.3333 47.6667L28.6667 48.3333L28.3333 47.6667z"/>
<path style="fill:#767677; stroke:none;" d="M39 47L39 56L40 56L39 47z"/>
<path style="fill:#7b7b7c; stroke:none;" d="M53 47L54 48L53 47z"/>
<path style="fill:#a3a3a4; stroke:none;" d="M62.3333 47.6667L62.6667 48.3333L62.3333 47.6667z"/>
<path style="fill:#b3b3b3; stroke:none;" d="M11 48L11 49L23 49L11 48z"/>
<path style="fill:#767676; stroke:none;" d="M47 48L48 49L47 48z"/>
<path style="fill:#b3b3b3; stroke:none;" d="M68 48L68 49L80 49L68 48z"/>
<path style="fill:#686869; stroke:none;" d="M273 48L274 49L273 48z"/>
<path style="fill:#a9a9aa; stroke:none;" d="M4.33333 49.6667L4.66667 50.3333L4.33333 49.6667z"/>
<path style="fill:#aaaaa9; stroke:none;" d="M86.3333 49.6667L86.6667 50.3333L86.3333 49.6667z"/>
<path style="fill:#505050; stroke:none;" d="M153.333 49.6667L153.667 50.3333L153.333 49.6667z"/>
<path style="fill:#747474; stroke:none;" d="M220 49L221 50L220 49z"/>
<path style="fill:#8a8a8a; stroke:none;" d="M269 49L270 50L269 49z"/>
<path style="fill:#868686; stroke:none;" d="M55 50L56 51L55 50z"/>
<path style="fill:#747475; stroke:none;" d="M158 50L159 51L158 50z"/>
<path style="fill:#6e6e6f; stroke:none;" d="M169 50L170 51L169 50z"/>
<path style="fill:#7c7c7c; stroke:none;" d="M224 50L225 51L224 50z"/>
<path style="fill:#89898a; stroke:none;" d="M251 50L252 51L251 50z"/>
<path style="fill:#818182; stroke:none;" d="M318 50L319 51L318 50z"/>
<path style="fill:#737373; stroke:none;" d="M49 51L50 52L49 51z"/>
<path style="fill:#4a4a4a; stroke:none;" d="M99 51L99 52L105 52L99 51z"/>
<path style="fill:#858585; stroke:none;" d="M173 51L174 52L173 51z"/>
<path style="fill:#a3a3a4; stroke:none;" d="M243.667 51.3333L244.333 51.6667L243.667 51.3333z"/>
<path style="fill:#787879; stroke:none;" d="M290 51L291 52L290 51z"/>
<path style="fill:#5a5a5a; stroke:none;" d="M9.33333 52.6667L9.66667 53.3333L9.33333 52.6667z"/>
<path style="fill:#858586; stroke:none;" d="M161 52L161 53L166 53L161 52z"/>
<path style="fill:#808081; stroke:none;" d="M205 52L206 53L205 52z"/>
<path style="fill:#9c9c9d; stroke:none;" d="M212 52L212 53L216 53L212 52z"/>
<path style="fill:#8a8a8a; stroke:none;" d="M249 52L250 53L249 52z"/>
<path style="fill:#989899; stroke:none;" d="M278 52L278 53L283 53L278 52z"/>
<path style="fill:#808081; stroke:none;" d="M289 52L290 53L289 52z"/>
<path style="fill:#6e6e6f; stroke:none;" d="M299 52L300 53L299 52z"/>
<path style="fill:#8d8d8e; stroke:none;" d="M306 52L306 53L311 53L306 52z"/>
<path style="fill:#646465; stroke:none;" d="M24.3333 53.6667L24.6667 54.3333L24.3333 53.6667z"/>
<path style="fill:#5f5f60; stroke:none;" d="M66.3333 53.6667L66.6667 54.3333L66.3333 53.6667z"/>
<path style="fill:#7a7a7b; stroke:none;" d="M206 53L207 54L206 53z"/>
<path style="fill:#707071; stroke:none;" d="M288 53L289 54L288 53z"/>
<path style="fill:#747474; stroke:none;" d="M300 53L301 54L300 53z"/>
<path style="fill:#656565; stroke:none;" d="M316 53L317 54L316 53z"/>
<path style="fill:#7b7b7b; stroke:none;" d="M2.33333 54.6667L2.66667 55.3333L2.33333 54.6667z"/>
<path style="fill:#8c8c8d; stroke:none;" d="M88.3333 54.6667L88.6667 55.3333L88.3333 54.6667z"/>
<path style="fill:#8b8b8b; stroke:none;" d="M94 54L95 55L94 54z"/>
<path style="fill:#787879; stroke:none;" d="M110 54L111 55L110 54z"/>
<path style="fill:#737373; stroke:none;" d="M220 54L221 55L220 54z"/>
<path style="fill:#585859; stroke:none;" d="M245.667 54.3333L246.333 54.6667L245.667 54.3333z"/>
<path style="fill:#8a8a8a; stroke:none;" d="M314 54L315 55L314 54z"/>
<path style="fill:#39393a; stroke:none;" d="M53 56L53 57L66 57L53 56z"/>
<path style="fill:#484849; stroke:none;" d="M167.667 55.3333L168.333 55.6667L167.667 55.3333z"/>
<path style="fill:#585859; stroke:none;" d="M217.667 55.3333L218.333 55.6667L217.667 55.3333z"/>
<path style="fill:#6f6f6f; stroke:none;" d="M231 55L231 56L243 56L231 55z"/>
<path style="fill:#868686; stroke:none;" d="M276.667 55.3333L277.333 55.6667L276.667 55.3333z"/>
<path style="fill:#676768; stroke:none;" d="M283.667 55.3333L284.333 55.6667L283.667 55.3333z"/>
<path style="fill:#bcbcbc; stroke:none;" d="M304 55L304 56L312 56L304 55z"/>
<path style="fill:#39393a; stroke:none;" d="M2 56L2 57L9 57L2 56M25 56L25 57L31 57L25 56M34 56L34 57L39 57L34 56M83 56L83 57L89 57L83 56z"/>
<path style="fill:#909091; stroke:none;" d="M98 56L98 57L106 57L98 56z"/>
<path style="fill:#39393a; stroke:none;" d="M118 56L118 57L124 57L118 56M138 56L138 57L143 57L138 56z"/>
</svg>
